<svg xmlns="http://www.w3.org/2000/svg" xml:space="preserve" style="max-width:100%" viewBox="0 0 100 100"><path fill="#f98250" d="M92.635 86.88h-9.398c-1.965 0-3.139-2.118-3.139-5.664v-3.6c-7.985.711-19.12 1.47-30.33 1.47-11.139 0-22.298-.768-30.32-1.49v3.62c0 3.546-1.176 5.664-3.147 5.664H6.906c-1.97 0-3.146-2.118-3.146-5.664v-6.794C.153 63.304 2.023 52.549 4.934 44.383l-.072-.008.467-1.07c.157-.415.316-.823.477-1.223l-2.551-.486c-1.919-.366-3.423-2.185-3.423-4.139v-3.699c0-2.112 1.718-3.83 3.83-3.83h8.22c.08 0 .16.002.239.007 1.53-2.444 3.018-4.427 4.388-5.818.855-1.025 1.701-1.959 2.511-2.772 5.183-5.183 22.639-5.946 27.865-6.057 10.274-.215 20.2.731 26.555 2.538 3.354.954 5.67 2.104 7.083 3.518.837.835 1.709 1.802 2.593 2.864 1.373 1.388 2.841 3.33 4.35 5.734.106-.009.214-.014.321-.014h8.223c1.024 0 1.987.401 2.711 1.129.724.727 1.118 1.69 1.112 2.712v3.688c0 1.955-1.502 3.773-3.42 4.139l-2.679.51c.052.129.103.258.154.389l.823 1.882-.113.013c2.906 8.16 4.774 18.914 1.173 30.033l.005 6.794c-.001 3.545-1.174 5.663-3.141 5.663zm-8.384-3.993h7.372c.085-.391.159-.958.159-1.671l-.005-7.437.103-.308c3.531-10.606 1.507-20.977-1.383-28.67-4.655.289-11.768-.083-19.867-.507-7.017-.368-14.271-.747-20.862-.747-6.589 0-13.837.38-20.846.747-8.114.426-15.233.8-19.887.505-2.893 7.698-4.918 18.069-1.382 28.671l.103.308v7.438c0 .714.074 1.281.159 1.671h7.382c.084-.39.159-.957.159-1.671v-8.007l2.187.209c8.014.765 20.094 1.675 32.127 1.675 12.117 0 24.166-.898 32.139-1.653l2.185-.207v7.983c-.003.713.072 1.28.157 1.671zM49.768 39.554c6.696 0 14.004.383 21.071.753 6.884.36 13.463.705 17.949.574-1.149-2.468-2.311-4.725-3.447-6.712l-.465-.695c-2.274-3.629-4.891-7.021-7.177-9.308-.511-.51-1.885-1.514-5.352-2.5-5.993-1.705-15.483-2.6-25.378-2.387-12.367.262-22.463 2.226-25.125 4.887-2.275 2.281-4.877 5.653-7.138 9.25l-.377.599c-1.174 2.04-2.373 4.357-3.544 6.866 4.489.13 11.052-.214 17.927-.574 7.06-.37 14.361-.753 21.056-.753zm40.003-5.634c.748 1.386 1.5 2.872 2.247 4.445l3.646-.693c.06-.021.166-.15.174-.221V33.92h-6.067zm-85.946 0v3.536c.009.063.118.195.187.219l3.551.676c.745-1.561 1.496-3.042 2.247-4.431H3.825zM82.32 63.722c-4.768 0-8.646-3.878-8.646-8.645 0-4.764 3.878-8.64 8.646-8.64 4.765 0 8.64 3.876 8.64 8.64 0 4.767-3.875 8.645-8.64 8.645zm0-13.292c-2.565 0-4.652 2.085-4.652 4.647 0 2.564 2.087 4.65 4.652 4.65 2.562 0 4.646-2.086 4.646-4.65.001-2.562-2.083-4.647-4.646-4.647zM17.219 63.722c-4.765 0-8.642-3.878-8.642-8.645 0-4.764 3.877-8.64 8.642-8.64 4.766 0 8.644 3.876 8.644 8.64-.001 4.767-3.878 8.645-8.644 8.645zm0-13.292c-2.563 0-4.648 2.085-4.648 4.647 0 2.564 2.085 4.65 4.648 4.65 2.564 0 4.65-2.086 4.65-4.65 0-2.562-2.086-4.647-4.65-4.647z"/></svg>