<svg xmlns="http://www.w3.org/2000/svg" xml:space="preserve" style="max-width:100%" viewBox="0 0 100 100"><path fill="#f98250" d="M35.117 58.76c-.602 0-1.172-.24-1.592-.658-.45-.451-.658-1.022-.658-1.592 0-.601.208-1.169.63-1.591.87-.87 2.37-.841 3.208 0 .393.422.633.99.633 1.591 0 .568-.211 1.17-.633 1.592-.448.418-1.019.658-1.588.658zM65.416 58.76c-.602 0-1.169-.24-1.591-.658-.448-.422-.688-1.022-.688-1.592 0-.601.24-1.169.659-1.591.841-.841 2.341-.841 3.183 0 .418.422.658.99.658 1.591 0 .568-.211 1.17-.63 1.592-.45.418-1.021.658-1.591.658z"/><path fill="#f98250" d="M68.87 72.093H31.634c-6.409 0-11.625-5.215-11.625-11.622V23.232c0-6.407 5.216-11.623 11.625-11.623H68.87c6.409 0 11.625 5.216 11.625 11.623V60.47c0 6.408-5.216 11.623-11.625 11.623zM31.634 16.109c-3.929 0-7.125 3.195-7.125 7.121v37.24c0 3.926 3.196 7.121 7.125 7.121H68.87c3.929 0 7.125-3.195 7.125-7.121V23.23c0-3.926-3.196-7.121-7.125-7.121H31.634z"/><path fill="#f98250" d="M69.339 45.768H31.171c-1.241 0-2.25-1.009-2.25-2.25V28.314c0-4.767 3.876-8.643 8.644-8.643h25.383c4.767 0 8.643 3.876 8.643 8.643v15.203c-.002 1.242-1.01 2.251-2.252 2.251zm-35.918-4.5h33.668V28.314c0-2.285-1.856-4.143-4.144-4.143H37.562c-2.285 0-4.143 1.857-4.143 4.143l.002 12.954zM21.755 90.547c-.577 0-1.151-.22-1.591-.658-.879-.88-.879-2.304 0-3.183l10.395-10.397c.879-.879 2.303-.879 3.183 0 .879.879.879 2.303 0 3.183L23.346 89.889c-.44.438-1.014.658-1.591.658zM77.529 90.547c-.576 0-1.15-.22-1.59-.658L65.55 79.491c-.879-.88-.879-2.304 0-3.183.882-.882 2.306-.875 3.183 0l10.389 10.397c.879.879.879 2.303 0 3.183-.44.439-1.018.659-1.593.659zM54.525 13.953h-9.444c-1.242 0-2.25-1.008-2.25-2.25s1.008-2.25 2.25-2.25h9.444c1.242 0 2.25 1.008 2.25 2.25s-1.005 2.25-2.25 2.25z"/></svg>