<?xml version="1.0" encoding="utf-8"?>
<svg xmlns="http://www.w3.org/2000/svg"
    viewBox="0 0 32 32"
    width="32"
    height="32"
    role="img"
    aria-labelledby="title-instagram">
    <title id="title-instagram">Instagram icon</title>

    <circle cx="16" cy="16" r="16" fill="#5e9a81" />

    <path fill="#ffffff"
        d="M12.7,8C10.1,8,8,10.1,8,12.7v6.6C8,21.9,10.1,24,12.7,24h6.6c2.6,0,4.7-2.1,4.7-4.7v-6.6
    C24,10.1,21.9,8,19.3,8H12.7z M12.7,9.5h6.6c1.8,0,3.3,1.5,3.3,3.2v6.6c0,1.8-1.5,3.3-3.3,3.3h-6.6c-1.8,0-3.2-1.5-3.2-3.3v-6.6
    C9.5,11,10.9,9.5,12.7,9.5z M20.3,11c-0.4,0-0.7,0.3-0.7,0.7s0.3,0.7,0.7,0.7s0.7-0.3,0.7-0.7S20.7,11,20.3,11z M16,11.6
    c-2.4,0-4.4,2-4.4,4.4s2,4.4,4.4,4.4s4.4-2,4.4-4.4S18.4,11.6,16,11.6z M16,13.1c1.6,0,2.9,1.3,2.9,2.9S17.6,19,16,19
    s-2.9-1.3-2.9-2.9S14.4,13.1,16,13.1z" />
</svg>