<?xml version="1.0" encoding="utf-8"?>
<svg xmlns="http://www.w3.org/2000/svg"
    viewBox="0 0 32 32"
    width="32"
    height="32"
    role="img"
    aria-labelledby="title-twitter">
    <title id="title-twitter">Twitter icon</title>

    <!-- green circular background -->
    <circle cx="16" cy="16" r="16" fill="#5e9a81" />

    <!-- white bird glyph -->
    <path
        d="M23.5445 10.2885C23.0796 10.5863 22.0123 11.019 21.4859 11.019V11.0199C20.8848 10.392 20.0386 10 19.1001 10C17.2773 10 15.7993 11.478 15.7993 13.3001C15.7993 13.5532 15.8286 13.8002 15.8828 14.037H15.8823C13.4098 13.9721 10.7056 12.7328 9.0777 10.6117C8.0768 12.3442 8.9429 14.2709 10.0788 14.973C9.69 15.0023 8.9742 14.9282 8.6373 14.5995C8.6148 15.7493 9.1676 17.2729 11.1836 17.8256C10.7954 18.0345 10.1081 17.9746 9.8092 17.9301C9.9141 18.9008 11.2734 20.1698 12.7598 20.1698C12.2301 20.7826 10.2368 21.894 8 21.5404C9.5191 22.4647 11.2896 23 13.1636 23C18.4889 23 22.6245 18.6841 22.402 13.3598V13.3417C22.402 13.328 22.402 13.3143 22.402 13.3001C22.402 13.2836 22.4005 13.2679 22.4 13.2519C22.8848 12.9204 23.5353 12.3339 24 11.562C23.7305 11.7104 22.922 12.0076 22.1696 12.0814C22.6524 11.8208 23.3678 10.9673 23.5445 10.2885Z"
        fill="#ffffff" />
</svg>